<svg width="26" height="28" viewBox="0 0 26 28" fill="none" xmlns="http://www.w3.org/2000/svg">
<g filter="url(#filter0_d_102_229)">
<path id='bulb' d="M20.21 6.36C19.17 4.26 17.16 2.71 14.83 2.2C12.39 1.66 9.88997 2.24 7.97997 3.78C6.05997 5.31 4.96997 7.6 4.96997 10.05C4.96997 12.64 6.51997 15.35 8.85997 16.92V17.75C8.84997 18.03 8.83997 18.46 9.17997 18.81C9.52997 19.17 10.05 19.21 10.46 19.21H15.59C16.13 19.21 16.54 19.06 16.82 18.78C17.2 18.39 17.19 17.89 17.18 17.62V16.92C20.28 14.83 22.23 10.42 20.21 6.36Z" fill="#FBCB18"/>
</g>
<path d="M16.26 22C16.2 22 16.13 21.99 16.07 21.97C14.06 21.4 11.95 21.4 9.93997 21.97C9.56997 22.07 9.17997 21.86 9.07997 21.49C8.96997 21.12 9.18997 20.73 9.55997 20.63C11.82 19.99 14.2 19.99 16.46 20.63C16.83 20.74 17.05 21.12 16.94 21.49C16.84 21.8 16.56 22 16.26 22Z" fill="#FBCB18"/>
<defs>
<filter id="filter0_d_102_229" x="0.969971" y="2.00243" width="24.0651" height="25.2076" filterUnits="userSpaceOnUse" color-interpolation-filters="sRGB">
<feFlood flood-opacity="0" result="BackgroundImageFix"/>
<feColorMatrix in="SourceAlpha" type="matrix" values="0 0 0 0 0 0 0 0 0 0 0 0 0 0 0 0 0 0 127 0" result="hardAlpha"/>
<feOffset dy="4"/>
<feGaussianBlur stdDeviation="2"/>
<feComposite in2="hardAlpha" operator="out"/>
<feColorMatrix type="matrix" values="0 0 0 0 0 0 0 0 0 0 0 0 0 0 0 0 0 0 0.25 0"/>
<feBlend mode="normal" in2="BackgroundImageFix" result="effect1_dropShadow_102_229"/>
<feBlend mode="normal" in="SourceGraphic" in2="effect1_dropShadow_102_229" result="shape"/>
</filter>
</defs>
</svg> 
