<svg width="16" height="16" viewBox="0 0 16 16" fill="none" xmlns="http://www.w3.org/2000/svg">
<path d="M9.99333 12.3167H11C13.3828 12.3167 15.3167 10.3829 15.3167 8.00001C15.3167 5.61717 13.3828 3.68334 11 3.68334H10C9.63586 3.68334 9.35 3.97847 9.35 4.33334C9.35 4.68952 9.64382 4.98334 10 4.98334H11C12.6638 4.98334 14.0167 6.33619 14.0167 8.00001C14.0167 9.66383 12.6638 11.0167 11 11.0167H9.99333C9.63716 11.0167 9.34333 11.3105 9.34333 11.6667C9.34333 12.0229 9.63716 12.3167 9.99333 12.3167Z" fill="#5030E5" stroke="#5030E5" stroke-width="0.3"/>
<path d="M4.99999 12.3167H5.99999C6.35617 12.3167 6.64999 12.0229 6.64999 11.6667C6.64999 11.3105 6.35617 11.0167 5.99999 11.0167H4.99999C3.33617 11.0167 1.98333 9.66383 1.98333 8.00001C1.98333 6.33619 3.33617 4.98334 4.99999 4.98334H5.99999C6.35617 4.98334 6.64999 4.68952 6.64999 4.33334C6.64999 3.97717 6.35617 3.68334 5.99999 3.68334H4.99999C2.61715 3.68334 0.683328 5.61717 0.683328 8.00001C0.683328 10.3829 2.61715 12.3167 4.99999 12.3167Z" fill="#5030E5" stroke="#5030E5" stroke-width="0.3"/>
<path d="M5.33333 8.65H10.6667C11.0228 8.65 11.3167 8.35618 11.3167 8C11.3167 7.64382 11.0228 7.35 10.6667 7.35H5.33333C4.97715 7.35 4.68333 7.64382 4.68333 8C4.68333 8.35618 4.97715 8.65 5.33333 8.65Z" fill="#5030E5" stroke="#5030E5" stroke-width="0.3"/>
</svg>
